<svg width="41" height="36" viewBox="0 0 41 36" fill="none" xmlns="http://www.w3.org/2000/svg">
<path d="M11.7794 1.46873C11.4259 0.802693 11.9087 0 12.6627 0H28.3373C29.0913 0 29.5741 0.802694 29.2206 1.46873L24.9756 9.46873C24.8021 9.79563 24.4623 10 24.0923 10H16.9077C16.5377 10 16.1979 9.79563 16.0244 9.46873L11.7794 1.46873Z" fill="#191A23"/>
<path d="M29.2206 34.5313C29.5741 35.1973 29.0913 36 28.3373 36H12.6627C11.9087 36 11.4259 35.1973 11.7794 34.5313L16.0244 26.5313C16.1979 26.2044 16.5377 26 16.9077 26H24.0923C24.4623 26 24.8021 26.2044 24.9756 26.5313L29.2206 34.5313Z" fill="#191A23"/>
<path d="M1.64046 17.4068C0.892099 17.3718 0.446537 16.5567 0.821127 15.9078L8.78464 2.11463C9.15923 1.46582 10.0879 1.44413 10.4924 2.07474L15.5877 10.0187C15.7896 10.3335 15.799 10.7347 15.612 11.0586L11.9805 17.3485C11.7935 17.6724 11.4414 17.8649 11.0678 17.8474L1.64046 17.4068Z" fill="#191A23"/>
<path d="M39.1418 18.6157C39.8901 18.6507 40.3357 19.4658 39.9611 20.1146L31.9976 33.9078C31.623 34.5566 30.6943 34.5783 30.2898 33.9477L25.1946 26.0037C24.9926 25.6889 24.9833 25.2878 25.1703 24.9639L28.8017 18.674C28.9887 18.3501 29.3409 18.1576 29.7144 18.1751L39.1418 18.6157Z" fill="#191A23"/>
<path d="M10.4931 33.9477C10.0886 34.5783 9.15991 34.5567 8.78532 33.9078L0.821802 20.1146C0.447212 19.4658 0.892775 18.6507 1.64114 18.6157L11.0685 18.1751C11.4421 18.1576 11.7942 18.3501 11.9812 18.674L15.6126 24.9639C15.7996 25.2878 15.7903 25.6889 15.5883 26.0038L10.4931 33.9477Z" fill="#191A23"/>
<path d="M30.2911 2.07473C30.6956 1.44411 31.6243 1.46581 31.9989 2.11462L39.9624 15.9078C40.337 16.5566 39.8914 17.3718 39.143 17.4067L29.7157 17.8474C29.3421 17.8648 28.99 17.6724 28.803 17.3485L25.1715 11.0586C24.9845 10.7347 24.9939 10.3335 25.1958 10.0187L30.2911 2.07473Z" fill="#191A23"/>
</svg>
