<svg width="220" height="230" viewBox="0 0 220 230" fill="none" xmlns="http://www.w3.org/2000/svg">
<path d="M123.082 73.3149L123.25 74.2203L123.918 73.5865L175.983 24.1823L145.086 88.9657L144.689 89.7968L145.602 89.6766L216.763 80.3107L153.687 114.561L152.878 115L153.687 115.439L216.763 149.689L145.602 140.323L144.689 140.203L145.086 141.034L175.983 205.818L123.918 156.413L123.25 155.78L123.082 156.685L110 227.257L96.9177 156.685L96.7499 155.78L96.0819 156.413L44.0171 205.818L74.9143 141.034L75.3107 140.203L74.3978 140.323L3.23744 149.689L66.3125 115.439L67.1217 115L66.3125 114.561L3.23743 80.3107L74.3978 89.6766L75.3107 89.7968L74.9143 88.9657L44.0171 24.1823L96.0819 73.5865L96.7499 74.2203L96.9177 73.3149L110 2.74317L123.082 73.3149Z" stroke="black"/>
</svg>
