<svg width="25" height="25" viewBox="0 0 25 25" fill="none" xmlns="http://www.w3.org/2000/svg">
<g clip-path="url(#clip0_4259_5)">
<path d="M10 15H15V7.5H18.75L12.5 1.25L6.25004 7.5H10V15ZM24.1725 16.915C23.91 16.635 22.1588 14.7613 21.6588 14.2725C21.3086 13.9363 20.8417 13.749 20.3563 13.75H18.16L21.99 17.4925H17.56C17.4997 17.4909 17.4401 17.5054 17.3873 17.5347C17.3346 17.5639 17.2906 17.6068 17.26 17.6588L16.24 20H8.76004L7.74004 17.6588C7.7085 17.6076 7.66434 17.5655 7.6118 17.5364C7.55926 17.5072 7.50011 17.4921 7.44004 17.4925H3.01004L6.83879 13.75H4.64379C4.14754 13.75 3.67379 13.9488 3.34129 14.2725C2.84129 14.7625 1.09004 16.6362 0.827537 16.915C0.216287 17.5662 -0.119963 18.085 0.0400372 18.7262L0.741287 22.5688C0.901287 23.2113 1.60504 23.7387 2.30629 23.7387H22.6963C23.3975 23.7387 24.1013 23.2113 24.2613 22.5688L24.9625 18.7262C25.12 18.085 24.785 17.5662 24.1725 16.915Z" fill="#034A6C"/>
</g>
<defs>
<clipPath id="clip0_4259_5">
<rect width="25" height="25" fill="white"/>
</clipPath>
</defs>
</svg>
